# xmcd
#
# Track frame offsets:
#	150
#	13317
#	32829
#	49487
#	64193
#	79027
#	99353
#	127362
#	144375
#	163462
#
# Disc length: 2527 seconds
#
# Revision: 1
# Processed by: cddbd v1.5.2PL0 Copyright (c) Steve Scherf et al.
# Submitted via: EasyCDDAExtractor 8.2.3.1
#
DISCID=9409dd0a
DTITLE=David Allan Coe - Living on the Edge
DYEAR=1996
DGENRE=Country
TTITLE0=Talkin To The Blues
TTITLE1=You Take My Breath Away
TTITLE2=Until Hell Freezes Over
TTITLE3=Trouble In Paradise
TTITLE4=Living On The Edge
TTITLE5=I Need To Go Down
TTITLE6=In My Mind
TTITLE7=That Little Girl Of Mine
TTITLE8=The Telephone
TTITLE9=Anymore
EXTD=
EXTT0=
EXTT1=
EXTT2=
EXTT3=
EXTT4=
EXTT5=
EXTT6=
EXTT7=
EXTT8=
EXTT9=
PLAYORDER=
